<?xml version="1.0" encoding="UTF-8"?>
<svg xmlns="http://www.w3.org/2000/svg" xmlns:xlink="http://www.w3.org/1999/xlink"
     width="512" height="512" viewBox="0 0 512 512">
<defs>
</defs>
<rect x="0.0" y="0.0" width="51.2" height="51.2" fill="#ffff00" />
<rect x="0.0" y="51.2" width="51.2" height="51.2" fill="#ffe200" />
<rect x="0.0" y="102.4" width="51.2" height="51.2" fill="#ffc600" />
<rect x="0.0" y="153.60000000000002" width="51.2" height="51.2" fill="#ffaa00" />
<rect x="0.0" y="204.8" width="51.2" height="51.2" fill="#ff8d00" />
<rect x="0.0" y="256.0" width="51.2" height="51.2" fill="#ff7100" />
<rect x="0.0" y="307.20000000000005" width="51.2" height="51.2" fill="#ff5500" />
<rect x="0.0" y="358.40000000000003" width="51.2" height="51.2" fill="#ff3800" />
<rect x="0.0" y="409.6" width="51.2" height="51.2" fill="#ff1c00" />
<rect x="0.0" y="460.8" width="51.2" height="51.2" fill="#ff0000" />
<rect x="51.2" y="0.0" width="51.2" height="51.2" fill="#e2ff00" />
<rect x="51.2" y="51.2" width="51.2" height="51.2" fill="#e5e203" />
<rect x="51.2" y="102.4" width="51.2" height="51.2" fill="#e8c606" />
<rect x="51.2" y="153.60000000000002" width="51.2" height="51.2" fill="#ecaa09" />
<rect x="51.2" y="204.8" width="51.2" height="51.2" fill="#ef8d0c" />
<rect x="51.2" y="256.0" width="51.2" height="51.2" fill="#f2710f" />
<rect x="51.2" y="307.20000000000005" width="51.2" height="51.2" fill="#f55512" />
<rect x="51.2" y="358.40000000000003" width="51.2" height="51.2" fill="#f83816" />
<rect x="51.2" y="409.6" width="51.2" height="51.2" fill="#fb1c19" />
<rect x="51.2" y="460.8" width="51.2" height="51.2" fill="#ff001c" />
<rect x="102.4" y="0.0" width="51.2" height="51.2" fill="#c6ff00" />
<rect x="102.4" y="51.2" width="51.2" height="51.2" fill="#cce206" />
<rect x="102.4" y="102.4" width="51.2" height="51.2" fill="#d2c60c" />
<rect x="102.4" y="153.60000000000002" width="51.2" height="51.2" fill="#d9aa12" />
<rect x="102.4" y="204.8" width="51.2" height="51.2" fill="#df8d19" />
<rect x="102.4" y="256.0" width="51.2" height="51.2" fill="#e5711f" />
<rect x="102.4" y="307.20000000000005" width="51.2" height="51.2" fill="#ec5525" />
<rect x="102.4" y="358.40000000000003" width="51.2" height="51.2" fill="#f2382c" />
<rect x="102.4" y="409.6" width="51.2" height="51.2" fill="#f81c32" />
<rect x="102.4" y="460.8" width="51.2" height="51.2" fill="#ff0038" />
<rect x="153.60000000000002" y="0.0" width="51.2" height="51.2" fill="#aaff00" />
<rect x="153.60000000000002" y="51.2" width="51.2" height="51.2" fill="#b3e209" />
<rect x="153.60000000000002" y="102.4" width="51.2" height="51.2" fill="#bcc612" />
<rect x="153.60000000000002" y="153.60000000000002" width="51.2" height="51.2" fill="#c6aa1c" />
<rect x="153.60000000000002" y="204.8" width="51.2" height="51.2" fill="#cf8d25" />
<rect x="153.60000000000002" y="256.0" width="51.2" height="51.2" fill="#d9712f" />
<rect x="153.60000000000002" y="307.20000000000005" width="51.2" height="51.2" fill="#e25538" />
<rect x="153.60000000000002" y="358.40000000000003" width="51.2" height="51.2" fill="#ec3842" />
<rect x="153.60000000000002" y="409.6" width="51.2" height="51.2" fill="#f51c4b" />
<rect x="153.60000000000002" y="460.8" width="51.2" height="51.2" fill="#ff0055" />
<rect x="204.8" y="0.0" width="51.2" height="51.2" fill="#8dff00" />
<rect x="204.8" y="51.2" width="51.2" height="51.2" fill="#9ae20c" />
<rect x="204.8" y="102.4" width="51.2" height="51.2" fill="#a6c619" />
<rect x="204.8" y="153.60000000000002" width="51.2" height="51.2" fill="#b3aa25" />
<rect x="204.8" y="204.8" width="51.2" height="51.2" fill="#c08d32" />
<rect x="204.8" y="256.0" width="51.2" height="51.2" fill="#cc713e" />
<rect x="204.8" y="307.20000000000005" width="51.2" height="51.2" fill="#d9554b" />
<rect x="204.8" y="358.40000000000003" width="51.2" height="51.2" fill="#e53858" />
<rect x="204.8" y="409.6" width="51.2" height="51.2" fill="#f21c64" />
<rect x="204.8" y="460.8" width="51.2" height="51.2" fill="#ff0071" />
<rect x="256.0" y="0.0" width="51.2" height="51.2" fill="#71ff00" />
<rect x="256.0" y="51.2" width="51.2" height="51.2" fill="#81e20f" />
<rect x="256.0" y="102.4" width="51.2" height="51.2" fill="#90c61f" />
<rect x="256.0" y="153.60000000000002" width="51.2" height="51.2" fill="#a0aa2f" />
<rect x="256.0" y="204.8" width="51.2" height="51.2" fill="#b08d3e" />
<rect x="256.0" y="256.0" width="51.2" height="51.2" fill="#c0714e" />
<rect x="256.0" y="307.20000000000005" width="51.2" height="51.2" fill="#cf555e" />
<rect x="256.0" y="358.40000000000003" width="51.2" height="51.2" fill="#df386e" />
<rect x="256.0" y="409.6" width="51.2" height="51.2" fill="#ef1c7d" />
<rect x="256.0" y="460.8" width="51.2" height="51.2" fill="#ff008d" />
<rect x="307.20000000000005" y="0.0" width="51.2" height="51.2" fill="#55ff00" />
<rect x="307.20000000000005" y="51.2" width="51.2" height="51.2" fill="#67e212" />
<rect x="307.20000000000005" y="102.4" width="51.2" height="51.2" fill="#7ac625" />
<rect x="307.20000000000005" y="153.60000000000002" width="51.2" height="51.2" fill="#8daa38" />
<rect x="307.20000000000005" y="204.8" width="51.2" height="51.2" fill="#a08d4b" />
<rect x="307.20000000000005" y="256.0" width="51.2" height="51.2" fill="#b3715e" />
<rect x="307.20000000000005" y="307.20000000000005" width="51.2" height="51.2" fill="#c65571" />
<rect x="307.20000000000005" y="358.40000000000003" width="51.2" height="51.2" fill="#d93884" />
<rect x="307.20000000000005" y="409.6" width="51.2" height="51.2" fill="#ec1c97" />
<rect x="307.20000000000005" y="460.8" width="51.2" height="51.2" fill="#ff00aa" />
<rect x="358.40000000000003" y="0.0" width="51.2" height="51.2" fill="#38ff00" />
<rect x="358.40000000000003" y="51.2" width="51.2" height="51.2" fill="#4ee216" />
<rect x="358.40000000000003" y="102.4" width="51.2" height="51.2" fill="#64c62c" />
<rect x="358.40000000000003" y="153.60000000000002" width="51.2" height="51.2" fill="#7aaa42" />
<rect x="358.40000000000003" y="204.8" width="51.2" height="51.2" fill="#908d58" />
<rect x="358.40000000000003" y="256.0" width="51.2" height="51.2" fill="#a6716e" />
<rect x="358.40000000000003" y="307.20000000000005" width="51.2" height="51.2" fill="#bc5584" />
<rect x="358.40000000000003" y="358.40000000000003" width="51.2" height="51.2" fill="#d2389a" />
<rect x="358.40000000000003" y="409.6" width="51.2" height="51.2" fill="#e81cb0" />
<rect x="358.40000000000003" y="460.8" width="51.2" height="51.2" fill="#ff00c6" />
<rect x="409.6" y="0.0" width="51.2" height="51.2" fill="#1cff00" />
<rect x="409.6" y="51.2" width="51.2" height="51.2" fill="#35e219" />
<rect x="409.6" y="102.4" width="51.2" height="51.2" fill="#4ec632" />
<rect x="409.6" y="153.60000000000002" width="51.2" height="51.2" fill="#67aa4b" />
<rect x="409.6" y="204.8" width="51.2" height="51.2" fill="#818d64" />
<rect x="409.6" y="256.0" width="51.2" height="51.2" fill="#9a717d" />
<rect x="409.6" y="307.20000000000005" width="51.2" height="51.2" fill="#b35597" />
<rect x="409.6" y="358.40000000000003" width="51.2" height="51.2" fill="#cc38b0" />
<rect x="409.6" y="409.6" width="51.2" height="51.2" fill="#e51cc9" />
<rect x="409.6" y="460.8" width="51.2" height="51.2" fill="#ff00e2" />
<rect x="460.8" y="0.0" width="51.2" height="51.2" fill="#00ff00" />
<rect x="460.8" y="51.2" width="51.2" height="51.2" fill="#1ce21c" />
<rect x="460.8" y="102.4" width="51.2" height="51.2" fill="#38c638" />
<rect x="460.8" y="153.60000000000002" width="51.2" height="51.2" fill="#55aa55" />
<rect x="460.8" y="204.8" width="51.2" height="51.2" fill="#718d71" />
<rect x="460.8" y="256.0" width="51.2" height="51.2" fill="#8d718d" />
<rect x="460.8" y="307.20000000000005" width="51.2" height="51.2" fill="#aa55aa" />
<rect x="460.8" y="358.40000000000003" width="51.2" height="51.2" fill="#c638c6" />
<rect x="460.8" y="409.6" width="51.2" height="51.2" fill="#e21ce2" />
<rect x="460.8" y="460.8" width="51.2" height="51.2" fill="#ff00ff" />
</svg>