<?xml version="1.0" encoding="UTF-8"?>
<svg xmlns="http://www.w3.org/2000/svg" xmlns:xlink="http://www.w3.org/1999/xlink"
     width="512" height="512" viewBox="0 0 512 512">
<defs>
</defs>
<rect x="0.0" y="0.0" width="51.2" height="51.2" fill="#ff0040" />
<rect x="0.0" y="51.2" width="51.2" height="51.2" fill="#ff1c38" />
<rect x="0.0" y="102.4" width="51.2" height="51.2" fill="#ff3831" />
<rect x="0.0" y="153.60000000000002" width="51.2" height="51.2" fill="#ff552a" />
<rect x="0.0" y="204.8" width="51.2" height="51.2" fill="#ff7123" />
<rect x="0.0" y="256.0" width="51.2" height="51.2" fill="#ff8d1c" />
<rect x="0.0" y="307.20000000000005" width="51.2" height="51.2" fill="#ffaa15" />
<rect x="0.0" y="358.40000000000003" width="51.2" height="51.2" fill="#ffc60e" />
<rect x="0.0" y="409.6" width="51.2" height="51.2" fill="#ffe207" />
<rect x="0.0" y="460.8" width="51.2" height="51.2" fill="#ffff00" />
<rect x="51.2" y="0.0" width="51.2" height="51.2" fill="#ff1c38" />
<rect x="51.2" y="51.2" width="51.2" height="51.2" fill="#ff3233" />
<rect x="51.2" y="102.4" width="51.2" height="51.2" fill="#ff482d" />
<rect x="51.2" y="153.60000000000002" width="51.2" height="51.2" fill="#ff5e28" />
<rect x="51.2" y="204.8" width="51.2" height="51.2" fill="#ff7422" />
<rect x="51.2" y="256.0" width="51.2" height="51.2" fill="#ff8a1d" />
<rect x="51.2" y="307.20000000000005" width="51.2" height="51.2" fill="#ffa017" />
<rect x="51.2" y="358.40000000000003" width="51.2" height="51.2" fill="#ffb612" />
<rect x="51.2" y="409.6" width="51.2" height="51.2" fill="#ffcc0c" />
<rect x="51.2" y="460.8" width="51.2" height="51.2" fill="#ffe207" />
<rect x="102.4" y="0.0" width="51.2" height="51.2" fill="#ff3831" />
<rect x="102.4" y="51.2" width="51.2" height="51.2" fill="#ff482d" />
<rect x="102.4" y="102.4" width="51.2" height="51.2" fill="#ff5829" />
<rect x="102.4" y="153.60000000000002" width="51.2" height="51.2" fill="#ff6725" />
<rect x="102.4" y="204.8" width="51.2" height="51.2" fill="#ff7721" />
<rect x="102.4" y="256.0" width="51.2" height="51.2" fill="#ff871e" />
<rect x="102.4" y="307.20000000000005" width="51.2" height="51.2" fill="#ff971a" />
<rect x="102.4" y="358.40000000000003" width="51.2" height="51.2" fill="#ffa616" />
<rect x="102.4" y="409.6" width="51.2" height="51.2" fill="#ffb612" />
<rect x="102.4" y="460.8" width="51.2" height="51.2" fill="#ffc60e" />
<rect x="153.60000000000002" y="0.0" width="51.2" height="51.2" fill="#ff552a" />
<rect x="153.60000000000002" y="51.2" width="51.2" height="51.2" fill="#ff5e28" />
<rect x="153.60000000000002" y="102.4" width="51.2" height="51.2" fill="#ff6725" />
<rect x="153.60000000000002" y="153.60000000000002" width="51.2" height="51.2" fill="#ff7123" />
<rect x="153.60000000000002" y="204.8" width="51.2" height="51.2" fill="#ff7a21" />
<rect x="153.60000000000002" y="256.0" width="51.2" height="51.2" fill="#ff841e" />
<rect x="153.60000000000002" y="307.20000000000005" width="51.2" height="51.2" fill="#ff8d1c" />
<rect x="153.60000000000002" y="358.40000000000003" width="51.2" height="51.2" fill="#ff971a" />
<rect x="153.60000000000002" y="409.6" width="51.2" height="51.2" fill="#ffa017" />
<rect x="153.60000000000002" y="460.8" width="51.2" height="51.2" fill="#ffaa15" />
<rect x="204.8" y="0.0" width="51.2" height="51.2" fill="#ff7123" />
<rect x="204.8" y="51.2" width="51.2" height="51.2" fill="#ff7422" />
<rect x="204.8" y="102.4" width="51.2" height="51.2" fill="#ff7721" />
<rect x="204.8" y="153.60000000000002" width="51.2" height="51.2" fill="#ff7a21" />
<rect x="204.8" y="204.8" width="51.2" height="51.2" fill="#ff7d20" />
<rect x="204.8" y="256.0" width="51.2" height="51.2" fill="#ff811f" />
<rect x="204.8" y="307.20000000000005" width="51.2" height="51.2" fill="#ff841e" />
<rect x="204.8" y="358.40000000000003" width="51.2" height="51.2" fill="#ff871e" />
<rect x="204.8" y="409.6" width="51.2" height="51.2" fill="#ff8a1d" />
<rect x="204.8" y="460.8" width="51.2" height="51.2" fill="#ff8d1c" />
<rect x="256.0" y="0.0" width="51.2" height="51.2" fill="#ff8d1c" />
<rect x="256.0" y="51.2" width="51.2" height="51.2" fill="#ff8a1d" />
<rect x="256.0" y="102.4" width="51.2" height="51.2" fill="#ff871e" />
<rect x="256.0" y="153.60000000000002" width="51.2" height="51.2" fill="#ff841e" />
<rect x="256.0" y="204.8" width="51.2" height="51.2" fill="#ff811f" />
<rect x="256.0" y="256.0" width="51.2" height="51.2" fill="#ff7d20" />
<rect x="256.0" y="307.20000000000005" width="51.2" height="51.2" fill="#ff7a21" />
<rect x="256.0" y="358.40000000000003" width="51.2" height="51.2" fill="#ff7721" />
<rect x="256.0" y="409.6" width="51.2" height="51.2" fill="#ff7422" />
<rect x="256.0" y="460.8" width="51.2" height="51.2" fill="#ff7123" />
<rect x="307.20000000000005" y="0.0" width="51.2" height="51.2" fill="#ffaa15" />
<rect x="307.20000000000005" y="51.2" width="51.2" height="51.2" fill="#ffa017" />
<rect x="307.20000000000005" y="102.4" width="51.2" height="51.2" fill="#ff971a" />
<rect x="307.20000000000005" y="153.60000000000002" width="51.2" height="51.2" fill="#ff8d1c" />
<rect x="307.20000000000005" y="204.8" width="51.2" height="51.2" fill="#ff841e" />
<rect x="307.20000000000005" y="256.0" width="51.2" height="51.2" fill="#ff7a21" />
<rect x="307.20000000000005" y="307.20000000000005" width="51.2" height="51.2" fill="#ff7123" />
<rect x="307.20000000000005" y="358.40000000000003" width="51.2" height="51.2" fill="#ff6725" />
<rect x="307.20000000000005" y="409.6" width="51.2" height="51.2" fill="#ff5e28" />
<rect x="307.20000000000005" y="460.8" width="51.2" height="51.2" fill="#ff552a" />
<rect x="358.40000000000003" y="0.0" width="51.2" height="51.2" fill="#ffc60e" />
<rect x="358.40000000000003" y="51.2" width="51.2" height="51.2" fill="#ffb612" />
<rect x="358.40000000000003" y="102.4" width="51.2" height="51.2" fill="#ffa616" />
<rect x="358.40000000000003" y="153.60000000000002" width="51.2" height="51.2" fill="#ff971a" />
<rect x="358.40000000000003" y="204.8" width="51.2" height="51.2" fill="#ff871e" />
<rect x="358.40000000000003" y="256.0" width="51.2" height="51.2" fill="#ff7721" />
<rect x="358.40000000000003" y="307.20000000000005" width="51.2" height="51.2" fill="#ff6725" />
<rect x="358.40000000000003" y="358.40000000000003" width="51.2" height="51.2" fill="#ff5829" />
<rect x="358.40000000000003" y="409.6" width="51.2" height="51.2" fill="#ff482d" />
<rect x="358.40000000000003" y="460.8" width="51.2" height="51.2" fill="#ff3831" />
<rect x="409.6" y="0.0" width="51.2" height="51.2" fill="#ffe207" />
<rect x="409.6" y="51.2" width="51.2" height="51.2" fill="#ffcc0c" />
<rect x="409.6" y="102.4" width="51.2" height="51.2" fill="#ffb612" />
<rect x="409.6" y="153.60000000000002" width="51.2" height="51.2" fill="#ffa017" />
<rect x="409.6" y="204.8" width="51.2" height="51.2" fill="#ff8a1d" />
<rect x="409.6" y="256.0" width="51.2" height="51.2" fill="#ff7422" />
<rect x="409.6" y="307.20000000000005" width="51.2" height="51.2" fill="#ff5e28" />
<rect x="409.6" y="358.40000000000003" width="51.2" height="51.2" fill="#ff482d" />
<rect x="409.6" y="409.6" width="51.2" height="51.2" fill="#ff3233" />
<rect x="409.6" y="460.8" width="51.2" height="51.2" fill="#ff1c38" />
<rect x="460.8" y="0.0" width="51.2" height="51.2" fill="#ffff00" />
<rect x="460.8" y="51.2" width="51.2" height="51.2" fill="#ffe207" />
<rect x="460.8" y="102.4" width="51.2" height="51.2" fill="#ffc60e" />
<rect x="460.8" y="153.60000000000002" width="51.2" height="51.2" fill="#ffaa15" />
<rect x="460.8" y="204.8" width="51.2" height="51.2" fill="#ff8d1c" />
<rect x="460.8" y="256.0" width="51.2" height="51.2" fill="#ff7123" />
<rect x="460.8" y="307.20000000000005" width="51.2" height="51.2" fill="#ff552a" />
<rect x="460.8" y="358.40000000000003" width="51.2" height="51.2" fill="#ff3831" />
<rect x="460.8" y="409.6" width="51.2" height="51.2" fill="#ff1c38" />
<rect x="460.8" y="460.8" width="51.2" height="51.2" fill="#ff0040" />
</svg>